<mxfile host="app.diagrams.net" agent="Mozilla/5.0 (Windows NT 10.0; Win64; x64) AppleWebKit/537.36 (KHTML, like Gecko) Chrome/128.0.0.0 Safari/537.36" modified="2024-08-31T02:26:46.233Z" version="24.4.4" etag="M3tQckL3VyO3zLlzZBE0" type="github" pages="3">
  <diagram id="R2lEEEUBdFMjLlhIrx00" name="Modelo Conceptual">
    <mxGraphModel dx="1451" dy="874" grid="1" gridSize="10" guides="1" tooltips="1" connect="1" arrows="1" fold="1" page="1" pageScale="1" pageWidth="850" pageHeight="1100" math="0" shadow="0" extFonts="Permanent Marker^https://fonts.googleapis.com/css?family=Permanent+Marker">
      <root>
        <mxCell id="0" />
        <mxCell id="1" parent="0" />
        <mxCell id="C-vyLk0tnHw3VtMMgP7b-1" value="" style="edgeStyle=entityRelationEdgeStyle;endArrow=ERzeroToMany;startArrow=ERone;endFill=1;startFill=0;labelBackgroundColor=none;strokeColor=#E07A5F;fontColor=default;" parent="1" source="C-vyLk0tnHw3VtMMgP7b-24" target="C-vyLk0tnHw3VtMMgP7b-6" edge="1">
          <mxGeometry width="100" height="100" relative="1" as="geometry">
            <mxPoint x="340" y="720" as="sourcePoint" />
            <mxPoint x="440" y="620" as="targetPoint" />
          </mxGeometry>
        </mxCell>
        <mxCell id="C-vyLk0tnHw3VtMMgP7b-12" value="" style="edgeStyle=entityRelationEdgeStyle;endArrow=ERzeroToMany;startArrow=ERone;endFill=1;startFill=0;labelBackgroundColor=none;strokeColor=#E07A5F;fontColor=default;" parent="1" source="C-vyLk0tnHw3VtMMgP7b-3" target="C-vyLk0tnHw3VtMMgP7b-17" edge="1">
          <mxGeometry width="100" height="100" relative="1" as="geometry">
            <mxPoint x="400" y="180" as="sourcePoint" />
            <mxPoint x="460" y="205" as="targetPoint" />
          </mxGeometry>
        </mxCell>
        <mxCell id="C-vyLk0tnHw3VtMMgP7b-2" value="Orders" style="shape=table;startSize=30;container=1;collapsible=1;childLayout=tableLayout;fixedRows=1;rowLines=0;fontStyle=1;align=center;resizeLast=1;labelBackgroundColor=none;fillColor=#F2CC8F;strokeColor=#E07A5F;fontColor=#393C56;" parent="1" vertex="1">
          <mxGeometry x="450" y="120" width="250" height="130" as="geometry" />
        </mxCell>
        <mxCell id="C-vyLk0tnHw3VtMMgP7b-3" value="" style="shape=partialRectangle;collapsible=0;dropTarget=0;pointerEvents=0;fillColor=none;points=[[0,0.5],[1,0.5]];portConstraint=eastwest;top=0;left=0;right=0;bottom=1;labelBackgroundColor=none;strokeColor=#E07A5F;fontColor=#393C56;" parent="C-vyLk0tnHw3VtMMgP7b-2" vertex="1">
          <mxGeometry y="30" width="250" height="30" as="geometry" />
        </mxCell>
        <mxCell id="C-vyLk0tnHw3VtMMgP7b-4" value="PK" style="shape=partialRectangle;overflow=hidden;connectable=0;fillColor=none;top=0;left=0;bottom=0;right=0;fontStyle=1;labelBackgroundColor=none;strokeColor=#E07A5F;fontColor=#393C56;" parent="C-vyLk0tnHw3VtMMgP7b-3" vertex="1">
          <mxGeometry width="30" height="30" as="geometry">
            <mxRectangle width="30" height="30" as="alternateBounds" />
          </mxGeometry>
        </mxCell>
        <mxCell id="C-vyLk0tnHw3VtMMgP7b-5" value="order_id int NOT NULL " style="shape=partialRectangle;overflow=hidden;connectable=0;fillColor=none;top=0;left=0;bottom=0;right=0;align=left;spacingLeft=6;fontStyle=5;labelBackgroundColor=none;strokeColor=#E07A5F;fontColor=#393C56;" parent="C-vyLk0tnHw3VtMMgP7b-3" vertex="1">
          <mxGeometry x="30" width="220" height="30" as="geometry">
            <mxRectangle width="220" height="30" as="alternateBounds" />
          </mxGeometry>
        </mxCell>
        <mxCell id="C-vyLk0tnHw3VtMMgP7b-6" value="" style="shape=partialRectangle;collapsible=0;dropTarget=0;pointerEvents=0;fillColor=none;points=[[0,0.5],[1,0.5]];portConstraint=eastwest;top=0;left=0;right=0;bottom=0;labelBackgroundColor=none;strokeColor=#E07A5F;fontColor=#393C56;" parent="C-vyLk0tnHw3VtMMgP7b-2" vertex="1">
          <mxGeometry y="60" width="250" height="30" as="geometry" />
        </mxCell>
        <mxCell id="C-vyLk0tnHw3VtMMgP7b-7" value="FK1" style="shape=partialRectangle;overflow=hidden;connectable=0;fillColor=none;top=0;left=0;bottom=0;right=0;labelBackgroundColor=none;strokeColor=#E07A5F;fontColor=#393C56;" parent="C-vyLk0tnHw3VtMMgP7b-6" vertex="1">
          <mxGeometry width="30" height="30" as="geometry">
            <mxRectangle width="30" height="30" as="alternateBounds" />
          </mxGeometry>
        </mxCell>
        <mxCell id="C-vyLk0tnHw3VtMMgP7b-8" value="customer_id int NOT NULL" style="shape=partialRectangle;overflow=hidden;connectable=0;fillColor=none;top=0;left=0;bottom=0;right=0;align=left;spacingLeft=6;labelBackgroundColor=none;strokeColor=#E07A5F;fontColor=#393C56;" parent="C-vyLk0tnHw3VtMMgP7b-6" vertex="1">
          <mxGeometry x="30" width="220" height="30" as="geometry">
            <mxRectangle width="220" height="30" as="alternateBounds" />
          </mxGeometry>
        </mxCell>
        <mxCell id="C-vyLk0tnHw3VtMMgP7b-9" value="" style="shape=partialRectangle;collapsible=0;dropTarget=0;pointerEvents=0;fillColor=none;points=[[0,0.5],[1,0.5]];portConstraint=eastwest;top=0;left=0;right=0;bottom=0;labelBackgroundColor=none;strokeColor=#E07A5F;fontColor=#393C56;" parent="C-vyLk0tnHw3VtMMgP7b-2" vertex="1">
          <mxGeometry y="90" width="250" height="30" as="geometry" />
        </mxCell>
        <mxCell id="C-vyLk0tnHw3VtMMgP7b-10" value="" style="shape=partialRectangle;overflow=hidden;connectable=0;fillColor=none;top=0;left=0;bottom=0;right=0;labelBackgroundColor=none;strokeColor=#E07A5F;fontColor=#393C56;" parent="C-vyLk0tnHw3VtMMgP7b-9" vertex="1">
          <mxGeometry width="30" height="30" as="geometry">
            <mxRectangle width="30" height="30" as="alternateBounds" />
          </mxGeometry>
        </mxCell>
        <mxCell id="C-vyLk0tnHw3VtMMgP7b-11" value="order_date date NOT NULL" style="shape=partialRectangle;overflow=hidden;connectable=0;fillColor=none;top=0;left=0;bottom=0;right=0;align=left;spacingLeft=6;labelBackgroundColor=none;strokeColor=#E07A5F;fontColor=#393C56;" parent="C-vyLk0tnHw3VtMMgP7b-9" vertex="1">
          <mxGeometry x="30" width="220" height="30" as="geometry">
            <mxRectangle width="220" height="30" as="alternateBounds" />
          </mxGeometry>
        </mxCell>
        <mxCell id="C-vyLk0tnHw3VtMMgP7b-13" value="Shipments" style="shape=table;startSize=30;container=1;collapsible=1;childLayout=tableLayout;fixedRows=1;rowLines=0;fontStyle=1;align=center;resizeLast=1;labelBackgroundColor=none;fillColor=#F2CC8F;strokeColor=#E07A5F;fontColor=#393C56;" parent="1" vertex="1">
          <mxGeometry x="450" y="280" width="250" height="130" as="geometry" />
        </mxCell>
        <mxCell id="C-vyLk0tnHw3VtMMgP7b-14" value="" style="shape=partialRectangle;collapsible=0;dropTarget=0;pointerEvents=0;fillColor=none;points=[[0,0.5],[1,0.5]];portConstraint=eastwest;top=0;left=0;right=0;bottom=1;labelBackgroundColor=none;strokeColor=#E07A5F;fontColor=#393C56;" parent="C-vyLk0tnHw3VtMMgP7b-13" vertex="1">
          <mxGeometry y="30" width="250" height="30" as="geometry" />
        </mxCell>
        <mxCell id="C-vyLk0tnHw3VtMMgP7b-15" value="PK" style="shape=partialRectangle;overflow=hidden;connectable=0;fillColor=none;top=0;left=0;bottom=0;right=0;fontStyle=1;labelBackgroundColor=none;strokeColor=#E07A5F;fontColor=#393C56;" parent="C-vyLk0tnHw3VtMMgP7b-14" vertex="1">
          <mxGeometry width="30" height="30" as="geometry">
            <mxRectangle width="30" height="30" as="alternateBounds" />
          </mxGeometry>
        </mxCell>
        <mxCell id="C-vyLk0tnHw3VtMMgP7b-16" value="shipment_id int NOT NULL " style="shape=partialRectangle;overflow=hidden;connectable=0;fillColor=none;top=0;left=0;bottom=0;right=0;align=left;spacingLeft=6;fontStyle=5;labelBackgroundColor=none;strokeColor=#E07A5F;fontColor=#393C56;" parent="C-vyLk0tnHw3VtMMgP7b-14" vertex="1">
          <mxGeometry x="30" width="220" height="30" as="geometry">
            <mxRectangle width="220" height="30" as="alternateBounds" />
          </mxGeometry>
        </mxCell>
        <mxCell id="C-vyLk0tnHw3VtMMgP7b-17" value="" style="shape=partialRectangle;collapsible=0;dropTarget=0;pointerEvents=0;fillColor=none;points=[[0,0.5],[1,0.5]];portConstraint=eastwest;top=0;left=0;right=0;bottom=0;labelBackgroundColor=none;strokeColor=#E07A5F;fontColor=#393C56;" parent="C-vyLk0tnHw3VtMMgP7b-13" vertex="1">
          <mxGeometry y="60" width="250" height="30" as="geometry" />
        </mxCell>
        <mxCell id="C-vyLk0tnHw3VtMMgP7b-18" value="FK1" style="shape=partialRectangle;overflow=hidden;connectable=0;fillColor=none;top=0;left=0;bottom=0;right=0;labelBackgroundColor=none;strokeColor=#E07A5F;fontColor=#393C56;" parent="C-vyLk0tnHw3VtMMgP7b-17" vertex="1">
          <mxGeometry width="30" height="30" as="geometry">
            <mxRectangle width="30" height="30" as="alternateBounds" />
          </mxGeometry>
        </mxCell>
        <mxCell id="C-vyLk0tnHw3VtMMgP7b-19" value="order_id int NOT NULL" style="shape=partialRectangle;overflow=hidden;connectable=0;fillColor=none;top=0;left=0;bottom=0;right=0;align=left;spacingLeft=6;labelBackgroundColor=none;strokeColor=#E07A5F;fontColor=#393C56;" parent="C-vyLk0tnHw3VtMMgP7b-17" vertex="1">
          <mxGeometry x="30" width="220" height="30" as="geometry">
            <mxRectangle width="220" height="30" as="alternateBounds" />
          </mxGeometry>
        </mxCell>
        <mxCell id="C-vyLk0tnHw3VtMMgP7b-20" value="" style="shape=partialRectangle;collapsible=0;dropTarget=0;pointerEvents=0;fillColor=none;points=[[0,0.5],[1,0.5]];portConstraint=eastwest;top=0;left=0;right=0;bottom=0;labelBackgroundColor=none;strokeColor=#E07A5F;fontColor=#393C56;" parent="C-vyLk0tnHw3VtMMgP7b-13" vertex="1">
          <mxGeometry y="90" width="250" height="30" as="geometry" />
        </mxCell>
        <mxCell id="C-vyLk0tnHw3VtMMgP7b-21" value="" style="shape=partialRectangle;overflow=hidden;connectable=0;fillColor=none;top=0;left=0;bottom=0;right=0;labelBackgroundColor=none;strokeColor=#E07A5F;fontColor=#393C56;" parent="C-vyLk0tnHw3VtMMgP7b-20" vertex="1">
          <mxGeometry width="30" height="30" as="geometry">
            <mxRectangle width="30" height="30" as="alternateBounds" />
          </mxGeometry>
        </mxCell>
        <mxCell id="C-vyLk0tnHw3VtMMgP7b-22" value="shipment_date date NOT NULL" style="shape=partialRectangle;overflow=hidden;connectable=0;fillColor=none;top=0;left=0;bottom=0;right=0;align=left;spacingLeft=6;labelBackgroundColor=none;strokeColor=#E07A5F;fontColor=#393C56;" parent="C-vyLk0tnHw3VtMMgP7b-20" vertex="1">
          <mxGeometry x="30" width="220" height="30" as="geometry">
            <mxRectangle width="220" height="30" as="alternateBounds" />
          </mxGeometry>
        </mxCell>
        <mxCell id="C-vyLk0tnHw3VtMMgP7b-23" value="Customers" style="shape=table;startSize=30;container=1;collapsible=1;childLayout=tableLayout;fixedRows=1;rowLines=0;fontStyle=1;align=center;resizeLast=1;labelBackgroundColor=none;fillColor=#F2CC8F;strokeColor=#E07A5F;fontColor=#393C56;" parent="1" vertex="1">
          <mxGeometry x="120" y="120" width="250" height="100" as="geometry" />
        </mxCell>
        <mxCell id="C-vyLk0tnHw3VtMMgP7b-24" value="" style="shape=partialRectangle;collapsible=0;dropTarget=0;pointerEvents=0;fillColor=none;points=[[0,0.5],[1,0.5]];portConstraint=eastwest;top=0;left=0;right=0;bottom=1;labelBackgroundColor=none;strokeColor=#E07A5F;fontColor=#393C56;" parent="C-vyLk0tnHw3VtMMgP7b-23" vertex="1">
          <mxGeometry y="30" width="250" height="30" as="geometry" />
        </mxCell>
        <mxCell id="C-vyLk0tnHw3VtMMgP7b-25" value="PK" style="shape=partialRectangle;overflow=hidden;connectable=0;fillColor=none;top=0;left=0;bottom=0;right=0;fontStyle=1;labelBackgroundColor=none;strokeColor=#E07A5F;fontColor=#393C56;" parent="C-vyLk0tnHw3VtMMgP7b-24" vertex="1">
          <mxGeometry width="30" height="30" as="geometry">
            <mxRectangle width="30" height="30" as="alternateBounds" />
          </mxGeometry>
        </mxCell>
        <mxCell id="C-vyLk0tnHw3VtMMgP7b-26" value="customer_id int NOT NULL " style="shape=partialRectangle;overflow=hidden;connectable=0;fillColor=none;top=0;left=0;bottom=0;right=0;align=left;spacingLeft=6;fontStyle=5;labelBackgroundColor=none;strokeColor=#E07A5F;fontColor=#393C56;" parent="C-vyLk0tnHw3VtMMgP7b-24" vertex="1">
          <mxGeometry x="30" width="220" height="30" as="geometry">
            <mxRectangle width="220" height="30" as="alternateBounds" />
          </mxGeometry>
        </mxCell>
        <mxCell id="C-vyLk0tnHw3VtMMgP7b-27" value="" style="shape=partialRectangle;collapsible=0;dropTarget=0;pointerEvents=0;fillColor=none;points=[[0,0.5],[1,0.5]];portConstraint=eastwest;top=0;left=0;right=0;bottom=0;labelBackgroundColor=none;strokeColor=#E07A5F;fontColor=#393C56;" parent="C-vyLk0tnHw3VtMMgP7b-23" vertex="1">
          <mxGeometry y="60" width="250" height="30" as="geometry" />
        </mxCell>
        <mxCell id="C-vyLk0tnHw3VtMMgP7b-28" value="" style="shape=partialRectangle;overflow=hidden;connectable=0;fillColor=none;top=0;left=0;bottom=0;right=0;labelBackgroundColor=none;strokeColor=#E07A5F;fontColor=#393C56;" parent="C-vyLk0tnHw3VtMMgP7b-27" vertex="1">
          <mxGeometry width="30" height="30" as="geometry">
            <mxRectangle width="30" height="30" as="alternateBounds" />
          </mxGeometry>
        </mxCell>
        <mxCell id="C-vyLk0tnHw3VtMMgP7b-29" value="customer_name char(50) NOT NULL" style="shape=partialRectangle;overflow=hidden;connectable=0;fillColor=none;top=0;left=0;bottom=0;right=0;align=left;spacingLeft=6;labelBackgroundColor=none;strokeColor=#E07A5F;fontColor=#393C56;" parent="C-vyLk0tnHw3VtMMgP7b-27" vertex="1">
          <mxGeometry x="30" width="220" height="30" as="geometry">
            <mxRectangle width="220" height="30" as="alternateBounds" />
          </mxGeometry>
        </mxCell>
      </root>
    </mxGraphModel>
  </diagram>
  <diagram id="yD9scM0kCB1ZR_Ktch-n" name="Modelo Lógico">
    <mxGraphModel grid="1" page="1" gridSize="10" guides="1" tooltips="1" connect="1" arrows="1" fold="1" pageScale="1" pageWidth="827" pageHeight="1169" math="0" shadow="0">
      <root>
        <mxCell id="0" />
        <mxCell id="1" parent="0" />
      </root>
    </mxGraphModel>
  </diagram>
  <diagram id="KF7PNRDl-zXph-ZcTxAk" name="Vista general">
    <mxGraphModel grid="1" page="1" gridSize="10" guides="1" tooltips="1" connect="1" arrows="1" fold="1" pageScale="1" pageWidth="827" pageHeight="1169" math="0" shadow="0">
      <root>
        <mxCell id="0" />
        <mxCell id="1" parent="0" />
        <mxCell id="s3q_Gl9xkGhvtME_iPTI-6" style="edgeStyle=orthogonalEdgeStyle;rounded=0;orthogonalLoop=1;jettySize=auto;html=1;exitX=1;exitY=0.5;exitDx=0;exitDy=0;entryX=0;entryY=0.5;entryDx=0;entryDy=0;" edge="1" parent="1" source="s3q_Gl9xkGhvtME_iPTI-1" target="s3q_Gl9xkGhvtME_iPTI-2">
          <mxGeometry relative="1" as="geometry" />
        </mxCell>
        <mxCell id="s3q_Gl9xkGhvtME_iPTI-7" style="edgeStyle=orthogonalEdgeStyle;rounded=0;orthogonalLoop=1;jettySize=auto;html=1;exitX=1;exitY=0.5;exitDx=0;exitDy=0;entryX=0;entryY=0.5;entryDx=0;entryDy=0;" edge="1" parent="1" source="s3q_Gl9xkGhvtME_iPTI-1" target="s3q_Gl9xkGhvtME_iPTI-5">
          <mxGeometry relative="1" as="geometry" />
        </mxCell>
        <mxCell id="s3q_Gl9xkGhvtME_iPTI-1" value="Superadministrador" style="rounded=0;whiteSpace=wrap;html=1;" vertex="1" parent="1">
          <mxGeometry x="-60" y="40" width="120" height="40" as="geometry" />
        </mxCell>
        <mxCell id="s3q_Gl9xkGhvtME_iPTI-2" value="Director" style="rounded=0;whiteSpace=wrap;html=1;" vertex="1" parent="1">
          <mxGeometry x="220" y="10" width="120" height="40" as="geometry" />
        </mxCell>
        <mxCell id="s3q_Gl9xkGhvtME_iPTI-5" value="Institución educativa" style="rounded=0;whiteSpace=wrap;html=1;" vertex="1" parent="1">
          <mxGeometry x="220" y="70" width="120" height="40" as="geometry" />
        </mxCell>
        <mxCell id="s3q_Gl9xkGhvtME_iPTI-10" style="edgeStyle=orthogonalEdgeStyle;rounded=0;orthogonalLoop=1;jettySize=auto;html=1;exitX=1;exitY=0.5;exitDx=0;exitDy=0;entryX=0;entryY=0.5;entryDx=0;entryDy=0;" edge="1" parent="1" source="s3q_Gl9xkGhvtME_iPTI-8" target="s3q_Gl9xkGhvtME_iPTI-9">
          <mxGeometry relative="1" as="geometry" />
        </mxCell>
        <mxCell id="s3q_Gl9xkGhvtME_iPTI-8" value="Institución educativa" style="rounded=0;whiteSpace=wrap;html=1;" vertex="1" parent="1">
          <mxGeometry x="380" y="40" width="120" height="40" as="geometry" />
        </mxCell>
        <mxCell id="s3q_Gl9xkGhvtME_iPTI-9" value="Director" style="rounded=0;whiteSpace=wrap;html=1;" vertex="1" parent="1">
          <mxGeometry x="570" y="40" width="120" height="40" as="geometry" />
        </mxCell>
        <mxCell id="s3q_Gl9xkGhvtME_iPTI-11" value="Director" style="rounded=0;whiteSpace=wrap;html=1;" vertex="1" parent="1">
          <mxGeometry x="-400" y="190" width="120" height="40" as="geometry" />
        </mxCell>
        <mxCell id="s3q_Gl9xkGhvtME_iPTI-16" style="edgeStyle=orthogonalEdgeStyle;rounded=0;orthogonalLoop=1;jettySize=auto;html=1;exitX=1;exitY=0.5;exitDx=0;exitDy=0;entryX=0;entryY=0.5;entryDx=0;entryDy=0;" edge="1" parent="1" source="s3q_Gl9xkGhvtME_iPTI-12" target="s3q_Gl9xkGhvtME_iPTI-11">
          <mxGeometry relative="1" as="geometry" />
        </mxCell>
        <mxCell id="s3q_Gl9xkGhvtME_iPTI-18" style="edgeStyle=orthogonalEdgeStyle;rounded=0;orthogonalLoop=1;jettySize=auto;html=1;exitX=1;exitY=0.5;exitDx=0;exitDy=0;entryX=0;entryY=0.5;entryDx=0;entryDy=0;" edge="1" parent="1" source="s3q_Gl9xkGhvtME_iPTI-12" target="s3q_Gl9xkGhvtME_iPTI-13">
          <mxGeometry relative="1" as="geometry" />
        </mxCell>
        <mxCell id="s3q_Gl9xkGhvtME_iPTI-19" style="edgeStyle=orthogonalEdgeStyle;rounded=0;orthogonalLoop=1;jettySize=auto;html=1;exitX=1;exitY=0.5;exitDx=0;exitDy=0;entryX=0;entryY=0.5;entryDx=0;entryDy=0;" edge="1" parent="1" source="s3q_Gl9xkGhvtME_iPTI-12" target="s3q_Gl9xkGhvtME_iPTI-14">
          <mxGeometry relative="1" as="geometry" />
        </mxCell>
        <mxCell id="s3q_Gl9xkGhvtME_iPTI-20" style="edgeStyle=orthogonalEdgeStyle;rounded=0;orthogonalLoop=1;jettySize=auto;html=1;exitX=1;exitY=0.5;exitDx=0;exitDy=0;entryX=0;entryY=0.5;entryDx=0;entryDy=0;" edge="1" parent="1" source="s3q_Gl9xkGhvtME_iPTI-12" target="s3q_Gl9xkGhvtME_iPTI-15">
          <mxGeometry relative="1" as="geometry" />
        </mxCell>
        <mxCell id="s3q_Gl9xkGhvtME_iPTI-12" value="Institución educativa" style="rounded=0;whiteSpace=wrap;html=1;" vertex="1" parent="1">
          <mxGeometry x="-700" y="280" width="120" height="40" as="geometry" />
        </mxCell>
        <mxCell id="s3q_Gl9xkGhvtME_iPTI-13" value="Docente" style="rounded=0;whiteSpace=wrap;html=1;" vertex="1" parent="1">
          <mxGeometry x="-400" y="250" width="120" height="40" as="geometry" />
        </mxCell>
        <mxCell id="s3q_Gl9xkGhvtME_iPTI-14" value="Alumno" style="rounded=0;whiteSpace=wrap;html=1;" vertex="1" parent="1">
          <mxGeometry x="-400" y="310" width="120" height="40" as="geometry" />
        </mxCell>
        <mxCell id="s3q_Gl9xkGhvtME_iPTI-15" value="Apoderado" style="rounded=0;whiteSpace=wrap;html=1;" vertex="1" parent="1">
          <mxGeometry x="-400" y="370" width="120" height="40" as="geometry" />
        </mxCell>
        <mxCell id="s3q_Gl9xkGhvtME_iPTI-25" style="edgeStyle=orthogonalEdgeStyle;rounded=0;orthogonalLoop=1;jettySize=auto;html=1;exitX=1;exitY=0.5;exitDx=0;exitDy=0;entryX=0;entryY=0.5;entryDx=0;entryDy=0;" edge="1" parent="1" source="s3q_Gl9xkGhvtME_iPTI-21" target="s3q_Gl9xkGhvtME_iPTI-22">
          <mxGeometry relative="1" as="geometry" />
        </mxCell>
        <mxCell id="s3q_Gl9xkGhvtME_iPTI-26" style="edgeStyle=orthogonalEdgeStyle;rounded=0;orthogonalLoop=1;jettySize=auto;html=1;exitX=1;exitY=0.5;exitDx=0;exitDy=0;entryX=0;entryY=0.5;entryDx=0;entryDy=0;" edge="1" parent="1" source="s3q_Gl9xkGhvtME_iPTI-21" target="s3q_Gl9xkGhvtME_iPTI-23">
          <mxGeometry relative="1" as="geometry" />
        </mxCell>
        <mxCell id="s3q_Gl9xkGhvtME_iPTI-21" value="Director" style="rounded=0;whiteSpace=wrap;html=1;" vertex="1" parent="1">
          <mxGeometry x="880" y="790" width="120" height="40" as="geometry" />
        </mxCell>
        <mxCell id="s3q_Gl9xkGhvtME_iPTI-32" style="edgeStyle=orthogonalEdgeStyle;rounded=0;orthogonalLoop=1;jettySize=auto;html=1;exitX=1;exitY=0.5;exitDx=0;exitDy=0;entryX=0;entryY=0.5;entryDx=0;entryDy=0;" edge="1" parent="1" source="s3q_Gl9xkGhvtME_iPTI-22" target="s3q_Gl9xkGhvtME_iPTI-29">
          <mxGeometry relative="1" as="geometry" />
        </mxCell>
        <mxCell id="s3q_Gl9xkGhvtME_iPTI-33" style="edgeStyle=orthogonalEdgeStyle;rounded=0;orthogonalLoop=1;jettySize=auto;html=1;exitX=1;exitY=0.5;exitDx=0;exitDy=0;entryX=0;entryY=0.5;entryDx=0;entryDy=0;" edge="1" parent="1" source="s3q_Gl9xkGhvtME_iPTI-22" target="s3q_Gl9xkGhvtME_iPTI-30">
          <mxGeometry relative="1" as="geometry" />
        </mxCell>
        <mxCell id="s3q_Gl9xkGhvtME_iPTI-34" style="edgeStyle=orthogonalEdgeStyle;rounded=0;orthogonalLoop=1;jettySize=auto;html=1;exitX=1;exitY=0.5;exitDx=0;exitDy=0;entryX=0;entryY=0.5;entryDx=0;entryDy=0;" edge="1" parent="1" source="s3q_Gl9xkGhvtME_iPTI-22" target="s3q_Gl9xkGhvtME_iPTI-31">
          <mxGeometry relative="1" as="geometry" />
        </mxCell>
        <mxCell id="s3q_Gl9xkGhvtME_iPTI-22" value="Periodo académico" style="rounded=0;whiteSpace=wrap;html=1;" vertex="1" parent="1">
          <mxGeometry x="1110" y="380" width="120" height="40" as="geometry" />
        </mxCell>
        <mxCell id="s3q_Gl9xkGhvtME_iPTI-91" style="edgeStyle=orthogonalEdgeStyle;rounded=0;orthogonalLoop=1;jettySize=auto;html=1;exitX=1;exitY=0.5;exitDx=0;exitDy=0;entryX=0;entryY=0.5;entryDx=0;entryDy=0;" edge="1" parent="1" source="s3q_Gl9xkGhvtME_iPTI-23" target="s3q_Gl9xkGhvtME_iPTI-73">
          <mxGeometry relative="1" as="geometry" />
        </mxCell>
        <mxCell id="s3q_Gl9xkGhvtME_iPTI-92" style="edgeStyle=orthogonalEdgeStyle;rounded=0;orthogonalLoop=1;jettySize=auto;html=1;exitX=1;exitY=0.5;exitDx=0;exitDy=0;entryX=0;entryY=0.5;entryDx=0;entryDy=0;" edge="1" parent="1" source="s3q_Gl9xkGhvtME_iPTI-23" target="s3q_Gl9xkGhvtME_iPTI-77">
          <mxGeometry relative="1" as="geometry" />
        </mxCell>
        <mxCell id="s3q_Gl9xkGhvtME_iPTI-93" style="edgeStyle=orthogonalEdgeStyle;rounded=0;orthogonalLoop=1;jettySize=auto;html=1;exitX=1;exitY=0.5;exitDx=0;exitDy=0;entryX=0;entryY=0.5;entryDx=0;entryDy=0;" edge="1" parent="1" source="s3q_Gl9xkGhvtME_iPTI-23" target="s3q_Gl9xkGhvtME_iPTI-81">
          <mxGeometry relative="1" as="geometry" />
        </mxCell>
        <mxCell id="s3q_Gl9xkGhvtME_iPTI-23" value="Periodo académico" style="rounded=0;whiteSpace=wrap;html=1;" vertex="1" parent="1">
          <mxGeometry x="1090" y="1145" width="120" height="40" as="geometry" />
        </mxCell>
        <mxCell id="s3q_Gl9xkGhvtME_iPTI-38" style="edgeStyle=orthogonalEdgeStyle;rounded=0;orthogonalLoop=1;jettySize=auto;html=1;exitX=1;exitY=0.5;exitDx=0;exitDy=0;entryX=0;entryY=0.5;entryDx=0;entryDy=0;" edge="1" parent="1" source="s3q_Gl9xkGhvtME_iPTI-29" target="s3q_Gl9xkGhvtME_iPTI-35">
          <mxGeometry relative="1" as="geometry" />
        </mxCell>
        <mxCell id="s3q_Gl9xkGhvtME_iPTI-39" style="edgeStyle=orthogonalEdgeStyle;rounded=0;orthogonalLoop=1;jettySize=auto;html=1;exitX=1;exitY=0.5;exitDx=0;exitDy=0;entryX=0;entryY=0.5;entryDx=0;entryDy=0;" edge="1" parent="1" source="s3q_Gl9xkGhvtME_iPTI-29" target="s3q_Gl9xkGhvtME_iPTI-36">
          <mxGeometry relative="1" as="geometry" />
        </mxCell>
        <mxCell id="s3q_Gl9xkGhvtME_iPTI-40" style="edgeStyle=orthogonalEdgeStyle;rounded=0;orthogonalLoop=1;jettySize=auto;html=1;exitX=1;exitY=0.5;exitDx=0;exitDy=0;entryX=0;entryY=0.5;entryDx=0;entryDy=0;" edge="1" parent="1" source="s3q_Gl9xkGhvtME_iPTI-29" target="s3q_Gl9xkGhvtME_iPTI-37">
          <mxGeometry relative="1" as="geometry" />
        </mxCell>
        <mxCell id="s3q_Gl9xkGhvtME_iPTI-29" value="Grado" style="rounded=0;whiteSpace=wrap;html=1;" vertex="1" parent="1">
          <mxGeometry x="1290" y="120" width="120" height="40" as="geometry" />
        </mxCell>
        <mxCell id="s3q_Gl9xkGhvtME_iPTI-64" style="edgeStyle=orthogonalEdgeStyle;rounded=0;orthogonalLoop=1;jettySize=auto;html=1;exitX=1;exitY=0.5;exitDx=0;exitDy=0;entryX=0;entryY=0.5;entryDx=0;entryDy=0;" edge="1" parent="1" source="s3q_Gl9xkGhvtME_iPTI-30" target="s3q_Gl9xkGhvtME_iPTI-41">
          <mxGeometry relative="1" as="geometry" />
        </mxCell>
        <mxCell id="s3q_Gl9xkGhvtME_iPTI-65" style="edgeStyle=orthogonalEdgeStyle;rounded=0;orthogonalLoop=1;jettySize=auto;html=1;exitX=1;exitY=0.5;exitDx=0;exitDy=0;entryX=0;entryY=0.5;entryDx=0;entryDy=0;" edge="1" parent="1" source="s3q_Gl9xkGhvtME_iPTI-30" target="s3q_Gl9xkGhvtME_iPTI-42">
          <mxGeometry relative="1" as="geometry" />
        </mxCell>
        <mxCell id="s3q_Gl9xkGhvtME_iPTI-66" style="edgeStyle=orthogonalEdgeStyle;rounded=0;orthogonalLoop=1;jettySize=auto;html=1;exitX=1;exitY=0.5;exitDx=0;exitDy=0;entryX=0;entryY=0.5;entryDx=0;entryDy=0;" edge="1" parent="1" source="s3q_Gl9xkGhvtME_iPTI-30" target="s3q_Gl9xkGhvtME_iPTI-43">
          <mxGeometry relative="1" as="geometry" />
        </mxCell>
        <mxCell id="s3q_Gl9xkGhvtME_iPTI-30" value="Grado" style="rounded=0;whiteSpace=wrap;html=1;" vertex="1" parent="1">
          <mxGeometry x="1290" y="380" width="120" height="40" as="geometry" />
        </mxCell>
        <mxCell id="s3q_Gl9xkGhvtME_iPTI-67" style="edgeStyle=orthogonalEdgeStyle;rounded=0;orthogonalLoop=1;jettySize=auto;html=1;exitX=1;exitY=0.5;exitDx=0;exitDy=0;entryX=0;entryY=0.5;entryDx=0;entryDy=0;" edge="1" parent="1" source="s3q_Gl9xkGhvtME_iPTI-31" target="s3q_Gl9xkGhvtME_iPTI-61">
          <mxGeometry relative="1" as="geometry" />
        </mxCell>
        <mxCell id="s3q_Gl9xkGhvtME_iPTI-68" style="edgeStyle=orthogonalEdgeStyle;rounded=0;orthogonalLoop=1;jettySize=auto;html=1;exitX=1;exitY=0.5;exitDx=0;exitDy=0;entryX=0;entryY=0.5;entryDx=0;entryDy=0;" edge="1" parent="1" source="s3q_Gl9xkGhvtME_iPTI-31" target="s3q_Gl9xkGhvtME_iPTI-62">
          <mxGeometry relative="1" as="geometry" />
        </mxCell>
        <mxCell id="s3q_Gl9xkGhvtME_iPTI-69" style="edgeStyle=orthogonalEdgeStyle;rounded=0;orthogonalLoop=1;jettySize=auto;html=1;exitX=1;exitY=0.5;exitDx=0;exitDy=0;entryX=0;entryY=0.5;entryDx=0;entryDy=0;" edge="1" parent="1" source="s3q_Gl9xkGhvtME_iPTI-31" target="s3q_Gl9xkGhvtME_iPTI-63">
          <mxGeometry relative="1" as="geometry" />
        </mxCell>
        <mxCell id="s3q_Gl9xkGhvtME_iPTI-31" value="Grado" style="rounded=0;whiteSpace=wrap;html=1;" vertex="1" parent="1">
          <mxGeometry x="1290" y="650" width="120" height="40" as="geometry" />
        </mxCell>
        <mxCell id="s3q_Gl9xkGhvtME_iPTI-35" value="Sección" style="rounded=0;whiteSpace=wrap;html=1;" vertex="1" parent="1">
          <mxGeometry x="1460" y="40" width="120" height="40" as="geometry" />
        </mxCell>
        <mxCell id="s3q_Gl9xkGhvtME_iPTI-36" value="Sección" style="rounded=0;whiteSpace=wrap;html=1;" vertex="1" parent="1">
          <mxGeometry x="1460" y="120" width="120" height="40" as="geometry" />
        </mxCell>
        <mxCell id="s3q_Gl9xkGhvtME_iPTI-37" value="Sección" style="rounded=0;whiteSpace=wrap;html=1;" vertex="1" parent="1">
          <mxGeometry x="1460" y="200" width="120" height="40" as="geometry" />
        </mxCell>
        <mxCell id="s3q_Gl9xkGhvtME_iPTI-41" value="Sección" style="rounded=0;whiteSpace=wrap;html=1;" vertex="1" parent="1">
          <mxGeometry x="1460" y="300" width="120" height="40" as="geometry" />
        </mxCell>
        <mxCell id="s3q_Gl9xkGhvtME_iPTI-42" value="Sección" style="rounded=0;whiteSpace=wrap;html=1;" vertex="1" parent="1">
          <mxGeometry x="1460" y="380" width="120" height="40" as="geometry" />
        </mxCell>
        <mxCell id="s3q_Gl9xkGhvtME_iPTI-43" value="Sección" style="rounded=0;whiteSpace=wrap;html=1;" vertex="1" parent="1">
          <mxGeometry x="1460" y="460" width="120" height="40" as="geometry" />
        </mxCell>
        <mxCell id="s3q_Gl9xkGhvtME_iPTI-61" value="Sección" style="rounded=0;whiteSpace=wrap;html=1;" vertex="1" parent="1">
          <mxGeometry x="1460" y="570" width="120" height="40" as="geometry" />
        </mxCell>
        <mxCell id="s3q_Gl9xkGhvtME_iPTI-62" value="Sección" style="rounded=0;whiteSpace=wrap;html=1;" vertex="1" parent="1">
          <mxGeometry x="1460" y="650" width="120" height="40" as="geometry" />
        </mxCell>
        <mxCell id="s3q_Gl9xkGhvtME_iPTI-63" value="Sección" style="rounded=0;whiteSpace=wrap;html=1;" vertex="1" parent="1">
          <mxGeometry x="1460" y="730" width="120" height="40" as="geometry" />
        </mxCell>
        <mxCell id="s3q_Gl9xkGhvtME_iPTI-70" style="edgeStyle=orthogonalEdgeStyle;rounded=0;orthogonalLoop=1;jettySize=auto;html=1;exitX=1;exitY=0.5;exitDx=0;exitDy=0;entryX=0;entryY=0.5;entryDx=0;entryDy=0;" edge="1" parent="1" source="s3q_Gl9xkGhvtME_iPTI-73" target="s3q_Gl9xkGhvtME_iPTI-82">
          <mxGeometry relative="1" as="geometry" />
        </mxCell>
        <mxCell id="s3q_Gl9xkGhvtME_iPTI-71" style="edgeStyle=orthogonalEdgeStyle;rounded=0;orthogonalLoop=1;jettySize=auto;html=1;exitX=1;exitY=0.5;exitDx=0;exitDy=0;entryX=0;entryY=0.5;entryDx=0;entryDy=0;" edge="1" parent="1" source="s3q_Gl9xkGhvtME_iPTI-73" target="s3q_Gl9xkGhvtME_iPTI-83">
          <mxGeometry relative="1" as="geometry" />
        </mxCell>
        <mxCell id="s3q_Gl9xkGhvtME_iPTI-72" style="edgeStyle=orthogonalEdgeStyle;rounded=0;orthogonalLoop=1;jettySize=auto;html=1;exitX=1;exitY=0.5;exitDx=0;exitDy=0;entryX=0;entryY=0.5;entryDx=0;entryDy=0;" edge="1" parent="1" source="s3q_Gl9xkGhvtME_iPTI-73" target="s3q_Gl9xkGhvtME_iPTI-84">
          <mxGeometry relative="1" as="geometry" />
        </mxCell>
        <mxCell id="s3q_Gl9xkGhvtME_iPTI-73" value="Grado" style="rounded=0;whiteSpace=wrap;html=1;" vertex="1" parent="1">
          <mxGeometry x="1290" y="880" width="120" height="40" as="geometry" />
        </mxCell>
        <mxCell id="s3q_Gl9xkGhvtME_iPTI-74" style="edgeStyle=orthogonalEdgeStyle;rounded=0;orthogonalLoop=1;jettySize=auto;html=1;exitX=1;exitY=0.5;exitDx=0;exitDy=0;entryX=0;entryY=0.5;entryDx=0;entryDy=0;" edge="1" parent="1" source="s3q_Gl9xkGhvtME_iPTI-77" target="s3q_Gl9xkGhvtME_iPTI-85">
          <mxGeometry relative="1" as="geometry" />
        </mxCell>
        <mxCell id="s3q_Gl9xkGhvtME_iPTI-75" style="edgeStyle=orthogonalEdgeStyle;rounded=0;orthogonalLoop=1;jettySize=auto;html=1;exitX=1;exitY=0.5;exitDx=0;exitDy=0;entryX=0;entryY=0.5;entryDx=0;entryDy=0;" edge="1" parent="1" source="s3q_Gl9xkGhvtME_iPTI-77" target="s3q_Gl9xkGhvtME_iPTI-86">
          <mxGeometry relative="1" as="geometry" />
        </mxCell>
        <mxCell id="s3q_Gl9xkGhvtME_iPTI-76" style="edgeStyle=orthogonalEdgeStyle;rounded=0;orthogonalLoop=1;jettySize=auto;html=1;exitX=1;exitY=0.5;exitDx=0;exitDy=0;entryX=0;entryY=0.5;entryDx=0;entryDy=0;" edge="1" parent="1" source="s3q_Gl9xkGhvtME_iPTI-77" target="s3q_Gl9xkGhvtME_iPTI-87">
          <mxGeometry relative="1" as="geometry" />
        </mxCell>
        <mxCell id="s3q_Gl9xkGhvtME_iPTI-77" value="Grado" style="rounded=0;whiteSpace=wrap;html=1;" vertex="1" parent="1">
          <mxGeometry x="1290" y="1145" width="120" height="40" as="geometry" />
        </mxCell>
        <mxCell id="s3q_Gl9xkGhvtME_iPTI-78" style="edgeStyle=orthogonalEdgeStyle;rounded=0;orthogonalLoop=1;jettySize=auto;html=1;exitX=1;exitY=0.5;exitDx=0;exitDy=0;entryX=0;entryY=0.5;entryDx=0;entryDy=0;" edge="1" parent="1" source="s3q_Gl9xkGhvtME_iPTI-81" target="s3q_Gl9xkGhvtME_iPTI-88">
          <mxGeometry relative="1" as="geometry" />
        </mxCell>
        <mxCell id="s3q_Gl9xkGhvtME_iPTI-79" style="edgeStyle=orthogonalEdgeStyle;rounded=0;orthogonalLoop=1;jettySize=auto;html=1;exitX=1;exitY=0.5;exitDx=0;exitDy=0;entryX=0;entryY=0.5;entryDx=0;entryDy=0;" edge="1" parent="1" source="s3q_Gl9xkGhvtME_iPTI-81" target="s3q_Gl9xkGhvtME_iPTI-89">
          <mxGeometry relative="1" as="geometry" />
        </mxCell>
        <mxCell id="s3q_Gl9xkGhvtME_iPTI-80" style="edgeStyle=orthogonalEdgeStyle;rounded=0;orthogonalLoop=1;jettySize=auto;html=1;exitX=1;exitY=0.5;exitDx=0;exitDy=0;entryX=0;entryY=0.5;entryDx=0;entryDy=0;" edge="1" parent="1" source="s3q_Gl9xkGhvtME_iPTI-81" target="s3q_Gl9xkGhvtME_iPTI-90">
          <mxGeometry relative="1" as="geometry" />
        </mxCell>
        <mxCell id="s3q_Gl9xkGhvtME_iPTI-81" value="Grado" style="rounded=0;whiteSpace=wrap;html=1;" vertex="1" parent="1">
          <mxGeometry x="1290" y="1410" width="120" height="40" as="geometry" />
        </mxCell>
        <mxCell id="s3q_Gl9xkGhvtME_iPTI-82" value="Sección" style="rounded=0;whiteSpace=wrap;html=1;" vertex="1" parent="1">
          <mxGeometry x="1460" y="800" width="120" height="40" as="geometry" />
        </mxCell>
        <mxCell id="s3q_Gl9xkGhvtME_iPTI-83" value="Sección" style="rounded=0;whiteSpace=wrap;html=1;" vertex="1" parent="1">
          <mxGeometry x="1460" y="880" width="120" height="40" as="geometry" />
        </mxCell>
        <mxCell id="s3q_Gl9xkGhvtME_iPTI-84" value="Sección" style="rounded=0;whiteSpace=wrap;html=1;" vertex="1" parent="1">
          <mxGeometry x="1460" y="960" width="120" height="40" as="geometry" />
        </mxCell>
        <mxCell id="s3q_Gl9xkGhvtME_iPTI-85" value="Sección" style="rounded=0;whiteSpace=wrap;html=1;" vertex="1" parent="1">
          <mxGeometry x="1460" y="1050.5" width="120" height="40" as="geometry" />
        </mxCell>
        <mxCell id="s3q_Gl9xkGhvtME_iPTI-86" value="Sección" style="rounded=0;whiteSpace=wrap;html=1;" vertex="1" parent="1">
          <mxGeometry x="1460" y="1145" width="120" height="40" as="geometry" />
        </mxCell>
        <mxCell id="s3q_Gl9xkGhvtME_iPTI-87" value="Sección" style="rounded=0;whiteSpace=wrap;html=1;" vertex="1" parent="1">
          <mxGeometry x="1460" y="1240.5" width="120" height="40" as="geometry" />
        </mxCell>
        <mxCell id="s3q_Gl9xkGhvtME_iPTI-88" value="Sección" style="rounded=0;whiteSpace=wrap;html=1;" vertex="1" parent="1">
          <mxGeometry x="1460" y="1330" width="120" height="40" as="geometry" />
        </mxCell>
        <mxCell id="s3q_Gl9xkGhvtME_iPTI-89" value="Sección" style="rounded=0;whiteSpace=wrap;html=1;" vertex="1" parent="1">
          <mxGeometry x="1460" y="1410" width="120" height="40" as="geometry" />
        </mxCell>
        <mxCell id="s3q_Gl9xkGhvtME_iPTI-90" value="Sección" style="rounded=0;whiteSpace=wrap;html=1;" vertex="1" parent="1">
          <mxGeometry x="1460" y="1490" width="120" height="40" as="geometry" />
        </mxCell>
        <mxCell id="s3q_Gl9xkGhvtME_iPTI-96" style="edgeStyle=orthogonalEdgeStyle;rounded=0;orthogonalLoop=1;jettySize=auto;html=1;exitX=1;exitY=0.5;exitDx=0;exitDy=0;entryX=0;entryY=0.5;entryDx=0;entryDy=0;" edge="1" parent="1" source="s3q_Gl9xkGhvtME_iPTI-98" target="s3q_Gl9xkGhvtME_iPTI-102">
          <mxGeometry relative="1" as="geometry" />
        </mxCell>
        <mxCell id="s3q_Gl9xkGhvtME_iPTI-97" style="edgeStyle=orthogonalEdgeStyle;rounded=0;orthogonalLoop=1;jettySize=auto;html=1;exitX=1;exitY=0.5;exitDx=0;exitDy=0;entryX=0;entryY=0.5;entryDx=0;entryDy=0;" edge="1" parent="1" source="s3q_Gl9xkGhvtME_iPTI-98" target="s3q_Gl9xkGhvtME_iPTI-106">
          <mxGeometry relative="1" as="geometry" />
        </mxCell>
        <mxCell id="s3q_Gl9xkGhvtME_iPTI-98" value="Director" style="rounded=0;whiteSpace=wrap;html=1;" vertex="1" parent="1">
          <mxGeometry x="1654" y="810" width="120" height="40" as="geometry" />
        </mxCell>
        <mxCell id="s3q_Gl9xkGhvtME_iPTI-99" style="edgeStyle=orthogonalEdgeStyle;rounded=0;orthogonalLoop=1;jettySize=auto;html=1;exitX=1;exitY=0.5;exitDx=0;exitDy=0;entryX=0;entryY=0.5;entryDx=0;entryDy=0;" edge="1" parent="1" source="s3q_Gl9xkGhvtME_iPTI-102" target="s3q_Gl9xkGhvtME_iPTI-110">
          <mxGeometry relative="1" as="geometry" />
        </mxCell>
        <mxCell id="s3q_Gl9xkGhvtME_iPTI-100" style="edgeStyle=orthogonalEdgeStyle;rounded=0;orthogonalLoop=1;jettySize=auto;html=1;exitX=1;exitY=0.5;exitDx=0;exitDy=0;entryX=0;entryY=0.5;entryDx=0;entryDy=0;" edge="1" parent="1" source="s3q_Gl9xkGhvtME_iPTI-102" target="s3q_Gl9xkGhvtME_iPTI-114">
          <mxGeometry relative="1" as="geometry" />
        </mxCell>
        <mxCell id="s3q_Gl9xkGhvtME_iPTI-101" style="edgeStyle=orthogonalEdgeStyle;rounded=0;orthogonalLoop=1;jettySize=auto;html=1;exitX=1;exitY=0.5;exitDx=0;exitDy=0;entryX=0;entryY=0.5;entryDx=0;entryDy=0;" edge="1" parent="1" source="s3q_Gl9xkGhvtME_iPTI-102" target="s3q_Gl9xkGhvtME_iPTI-118">
          <mxGeometry relative="1" as="geometry" />
        </mxCell>
        <mxCell id="s3q_Gl9xkGhvtME_iPTI-102" value="Periodo académico" style="rounded=0;whiteSpace=wrap;html=1;" vertex="1" parent="1">
          <mxGeometry x="1884" y="400" width="120" height="40" as="geometry" />
        </mxCell>
        <mxCell id="s3q_Gl9xkGhvtME_iPTI-103" style="edgeStyle=orthogonalEdgeStyle;rounded=0;orthogonalLoop=1;jettySize=auto;html=1;exitX=1;exitY=0.5;exitDx=0;exitDy=0;entryX=0;entryY=0.5;entryDx=0;entryDy=0;" edge="1" parent="1" source="s3q_Gl9xkGhvtME_iPTI-106" target="s3q_Gl9xkGhvtME_iPTI-131">
          <mxGeometry relative="1" as="geometry" />
        </mxCell>
        <mxCell id="s3q_Gl9xkGhvtME_iPTI-104" style="edgeStyle=orthogonalEdgeStyle;rounded=0;orthogonalLoop=1;jettySize=auto;html=1;exitX=1;exitY=0.5;exitDx=0;exitDy=0;entryX=0;entryY=0.5;entryDx=0;entryDy=0;" edge="1" parent="1" source="s3q_Gl9xkGhvtME_iPTI-106" target="s3q_Gl9xkGhvtME_iPTI-135">
          <mxGeometry relative="1" as="geometry" />
        </mxCell>
        <mxCell id="s3q_Gl9xkGhvtME_iPTI-105" style="edgeStyle=orthogonalEdgeStyle;rounded=0;orthogonalLoop=1;jettySize=auto;html=1;exitX=1;exitY=0.5;exitDx=0;exitDy=0;entryX=0;entryY=0.5;entryDx=0;entryDy=0;" edge="1" parent="1" source="s3q_Gl9xkGhvtME_iPTI-106" target="s3q_Gl9xkGhvtME_iPTI-139">
          <mxGeometry relative="1" as="geometry" />
        </mxCell>
        <mxCell id="s3q_Gl9xkGhvtME_iPTI-106" value="Periodo académico" style="rounded=0;whiteSpace=wrap;html=1;" vertex="1" parent="1">
          <mxGeometry x="1884" y="1165" width="120" height="40" as="geometry" />
        </mxCell>
        <mxCell id="s3q_Gl9xkGhvtME_iPTI-107" style="edgeStyle=orthogonalEdgeStyle;rounded=0;orthogonalLoop=1;jettySize=auto;html=1;exitX=1;exitY=0.5;exitDx=0;exitDy=0;entryX=0;entryY=0.5;entryDx=0;entryDy=0;" edge="1" parent="1" source="s3q_Gl9xkGhvtME_iPTI-110" target="s3q_Gl9xkGhvtME_iPTI-119">
          <mxGeometry relative="1" as="geometry" />
        </mxCell>
        <mxCell id="s3q_Gl9xkGhvtME_iPTI-110" value="Grado" style="rounded=0;whiteSpace=wrap;html=1;" vertex="1" parent="1">
          <mxGeometry x="2064" y="140" width="120" height="40" as="geometry" />
        </mxCell>
        <mxCell id="s3q_Gl9xkGhvtME_iPTI-111" style="edgeStyle=orthogonalEdgeStyle;rounded=0;orthogonalLoop=1;jettySize=auto;html=1;exitX=1;exitY=0.5;exitDx=0;exitDy=0;entryX=0;entryY=0.5;entryDx=0;entryDy=0;" edge="1" parent="1" source="s3q_Gl9xkGhvtME_iPTI-114" target="s3q_Gl9xkGhvtME_iPTI-122">
          <mxGeometry relative="1" as="geometry" />
        </mxCell>
        <mxCell id="s3q_Gl9xkGhvtME_iPTI-114" value="Grado" style="rounded=0;whiteSpace=wrap;html=1;" vertex="1" parent="1">
          <mxGeometry x="2064" y="400" width="120" height="40" as="geometry" />
        </mxCell>
        <mxCell id="s3q_Gl9xkGhvtME_iPTI-116" style="edgeStyle=orthogonalEdgeStyle;rounded=0;orthogonalLoop=1;jettySize=auto;html=1;exitX=1;exitY=0.5;exitDx=0;exitDy=0;entryX=0;entryY=0.5;entryDx=0;entryDy=0;" edge="1" parent="1" source="s3q_Gl9xkGhvtME_iPTI-118" target="s3q_Gl9xkGhvtME_iPTI-126">
          <mxGeometry relative="1" as="geometry" />
        </mxCell>
        <mxCell id="s3q_Gl9xkGhvtME_iPTI-118" value="Grado" style="rounded=0;whiteSpace=wrap;html=1;" vertex="1" parent="1">
          <mxGeometry x="2064" y="670" width="120" height="40" as="geometry" />
        </mxCell>
        <mxCell id="s3q_Gl9xkGhvtME_iPTI-119" value="Sección" style="rounded=0;whiteSpace=wrap;html=1;" vertex="1" parent="1">
          <mxGeometry x="2234" y="140" width="120" height="40" as="geometry" />
        </mxCell>
        <mxCell id="s3q_Gl9xkGhvtME_iPTI-122" value="Sección" style="rounded=0;whiteSpace=wrap;html=1;" vertex="1" parent="1">
          <mxGeometry x="2234" y="400" width="120" height="40" as="geometry" />
        </mxCell>
        <mxCell id="s3q_Gl9xkGhvtME_iPTI-126" value="Sección" style="rounded=0;whiteSpace=wrap;html=1;" vertex="1" parent="1">
          <mxGeometry x="2234" y="670" width="120" height="40" as="geometry" />
        </mxCell>
        <mxCell id="s3q_Gl9xkGhvtME_iPTI-129" style="edgeStyle=orthogonalEdgeStyle;rounded=0;orthogonalLoop=1;jettySize=auto;html=1;exitX=1;exitY=0.5;exitDx=0;exitDy=0;entryX=0;entryY=0.5;entryDx=0;entryDy=0;" edge="1" parent="1" source="s3q_Gl9xkGhvtME_iPTI-131" target="s3q_Gl9xkGhvtME_iPTI-141">
          <mxGeometry relative="1" as="geometry" />
        </mxCell>
        <mxCell id="s3q_Gl9xkGhvtME_iPTI-131" value="Grado" style="rounded=0;whiteSpace=wrap;html=1;" vertex="1" parent="1">
          <mxGeometry x="2064" y="900" width="120" height="40" as="geometry" />
        </mxCell>
        <mxCell id="s3q_Gl9xkGhvtME_iPTI-133" style="edgeStyle=orthogonalEdgeStyle;rounded=0;orthogonalLoop=1;jettySize=auto;html=1;exitX=1;exitY=0.5;exitDx=0;exitDy=0;entryX=0;entryY=0.5;entryDx=0;entryDy=0;" edge="1" parent="1" source="s3q_Gl9xkGhvtME_iPTI-135" target="s3q_Gl9xkGhvtME_iPTI-144">
          <mxGeometry relative="1" as="geometry" />
        </mxCell>
        <mxCell id="s3q_Gl9xkGhvtME_iPTI-135" value="Grado" style="rounded=0;whiteSpace=wrap;html=1;" vertex="1" parent="1">
          <mxGeometry x="2064" y="1165" width="120" height="40" as="geometry" />
        </mxCell>
        <mxCell id="s3q_Gl9xkGhvtME_iPTI-137" style="edgeStyle=orthogonalEdgeStyle;rounded=0;orthogonalLoop=1;jettySize=auto;html=1;exitX=1;exitY=0.5;exitDx=0;exitDy=0;entryX=0;entryY=0.5;entryDx=0;entryDy=0;" edge="1" parent="1" source="s3q_Gl9xkGhvtME_iPTI-139" target="s3q_Gl9xkGhvtME_iPTI-147">
          <mxGeometry relative="1" as="geometry" />
        </mxCell>
        <mxCell id="s3q_Gl9xkGhvtME_iPTI-139" value="Grado" style="rounded=0;whiteSpace=wrap;html=1;" vertex="1" parent="1">
          <mxGeometry x="2064" y="1430" width="120" height="40" as="geometry" />
        </mxCell>
        <mxCell id="s3q_Gl9xkGhvtME_iPTI-141" value="Sección" style="rounded=0;whiteSpace=wrap;html=1;" vertex="1" parent="1">
          <mxGeometry x="2234" y="900" width="120" height="40" as="geometry" />
        </mxCell>
        <mxCell id="s3q_Gl9xkGhvtME_iPTI-144" value="Sección" style="rounded=0;whiteSpace=wrap;html=1;" vertex="1" parent="1">
          <mxGeometry x="2234" y="1165" width="120" height="40" as="geometry" />
        </mxCell>
        <mxCell id="s3q_Gl9xkGhvtME_iPTI-147" value="Sección" style="rounded=0;whiteSpace=wrap;html=1;" vertex="1" parent="1">
          <mxGeometry x="2234" y="1430" width="120" height="40" as="geometry" />
        </mxCell>
        <mxCell id="s3q_Gl9xkGhvtME_iPTI-149" value="CASO: VARIAS SECCIONES" style="text;html=1;align=center;verticalAlign=middle;resizable=0;points=[];autosize=1;strokeColor=none;fillColor=none;fontSize=36;" vertex="1" parent="1">
          <mxGeometry x="1040" y="-50" width="500" height="60" as="geometry" />
        </mxCell>
        <mxCell id="s3q_Gl9xkGhvtME_iPTI-151" value="CASO: SECCIÓN ÚNICA" style="text;html=1;align=center;verticalAlign=middle;resizable=0;points=[];autosize=1;strokeColor=none;fillColor=none;fontSize=36;" vertex="1" parent="1">
          <mxGeometry x="1889" y="-40" width="430" height="60" as="geometry" />
        </mxCell>
        <mxCell id="s3q_Gl9xkGhvtME_iPTI-161" style="edgeStyle=orthogonalEdgeStyle;rounded=0;orthogonalLoop=1;jettySize=auto;html=1;exitX=0.5;exitY=1;exitDx=0;exitDy=0;entryX=0.5;entryY=0;entryDx=0;entryDy=0;" edge="1" parent="1" source="s3q_Gl9xkGhvtME_iPTI-153" target="s3q_Gl9xkGhvtME_iPTI-157">
          <mxGeometry relative="1" as="geometry" />
        </mxCell>
        <mxCell id="s3q_Gl9xkGhvtME_iPTI-153" value="Grado" style="rounded=0;whiteSpace=wrap;html=1;" vertex="1" parent="1">
          <mxGeometry x="2750" y="110" width="120" height="40" as="geometry" />
        </mxCell>
        <mxCell id="s3q_Gl9xkGhvtME_iPTI-162" style="edgeStyle=orthogonalEdgeStyle;rounded=0;orthogonalLoop=1;jettySize=auto;html=1;exitX=0.5;exitY=1;exitDx=0;exitDy=0;entryX=0.5;entryY=0;entryDx=0;entryDy=0;" edge="1" parent="1" source="s3q_Gl9xkGhvtME_iPTI-157" target="s3q_Gl9xkGhvtME_iPTI-159">
          <mxGeometry relative="1" as="geometry" />
        </mxCell>
        <mxCell id="s3q_Gl9xkGhvtME_iPTI-157" value="Sección" style="rounded=0;whiteSpace=wrap;html=1;" vertex="1" parent="1">
          <mxGeometry x="2750" y="180" width="120" height="40" as="geometry" />
        </mxCell>
        <mxCell id="s3q_Gl9xkGhvtME_iPTI-166" style="edgeStyle=orthogonalEdgeStyle;rounded=0;orthogonalLoop=1;jettySize=auto;html=1;exitX=0.5;exitY=1;exitDx=0;exitDy=0;entryX=0.5;entryY=0;entryDx=0;entryDy=0;" edge="1" parent="1" source="s3q_Gl9xkGhvtME_iPTI-159" target="s3q_Gl9xkGhvtME_iPTI-163">
          <mxGeometry relative="1" as="geometry" />
        </mxCell>
        <mxCell id="s3q_Gl9xkGhvtME_iPTI-167" style="edgeStyle=orthogonalEdgeStyle;rounded=0;orthogonalLoop=1;jettySize=auto;html=1;exitX=0.5;exitY=1;exitDx=0;exitDy=0;entryX=0.5;entryY=0;entryDx=0;entryDy=0;" edge="1" parent="1" source="s3q_Gl9xkGhvtME_iPTI-159" target="s3q_Gl9xkGhvtME_iPTI-164">
          <mxGeometry relative="1" as="geometry" />
        </mxCell>
        <mxCell id="s3q_Gl9xkGhvtME_iPTI-168" style="edgeStyle=orthogonalEdgeStyle;rounded=0;orthogonalLoop=1;jettySize=auto;html=1;exitX=0.5;exitY=1;exitDx=0;exitDy=0;entryX=0.5;entryY=0;entryDx=0;entryDy=0;" edge="1" parent="1" source="s3q_Gl9xkGhvtME_iPTI-159" target="s3q_Gl9xkGhvtME_iPTI-165">
          <mxGeometry relative="1" as="geometry" />
        </mxCell>
        <mxCell id="s3q_Gl9xkGhvtME_iPTI-159" value="Docente" style="rounded=0;whiteSpace=wrap;html=1;" vertex="1" parent="1">
          <mxGeometry x="2750" y="260" width="120" height="40" as="geometry" />
        </mxCell>
        <mxCell id="s3q_Gl9xkGhvtME_iPTI-163" value="Alumno" style="rounded=0;whiteSpace=wrap;html=1;" vertex="1" parent="1">
          <mxGeometry x="2610" y="350" width="120" height="40" as="geometry" />
        </mxCell>
        <mxCell id="s3q_Gl9xkGhvtME_iPTI-164" value="Alumno" style="rounded=0;whiteSpace=wrap;html=1;" vertex="1" parent="1">
          <mxGeometry x="2750" y="350" width="120" height="40" as="geometry" />
        </mxCell>
        <mxCell id="s3q_Gl9xkGhvtME_iPTI-165" value="Alumno" style="rounded=0;whiteSpace=wrap;html=1;" vertex="1" parent="1">
          <mxGeometry x="2890" y="350" width="120" height="40" as="geometry" />
        </mxCell>
        <mxCell id="s3q_Gl9xkGhvtME_iPTI-172" style="edgeStyle=orthogonalEdgeStyle;rounded=0;orthogonalLoop=1;jettySize=auto;html=1;exitX=0.5;exitY=0;exitDx=0;exitDy=0;entryX=0.5;entryY=1;entryDx=0;entryDy=0;" edge="1" parent="1" source="s3q_Gl9xkGhvtME_iPTI-169" target="s3q_Gl9xkGhvtME_iPTI-163">
          <mxGeometry relative="1" as="geometry" />
        </mxCell>
        <mxCell id="s3q_Gl9xkGhvtME_iPTI-169" value="Apoderado" style="rounded=0;whiteSpace=wrap;html=1;" vertex="1" parent="1">
          <mxGeometry x="2610" y="420" width="120" height="40" as="geometry" />
        </mxCell>
        <mxCell id="s3q_Gl9xkGhvtME_iPTI-173" style="edgeStyle=orthogonalEdgeStyle;rounded=0;orthogonalLoop=1;jettySize=auto;html=1;exitX=0.5;exitY=0;exitDx=0;exitDy=0;entryX=0.5;entryY=1;entryDx=0;entryDy=0;" edge="1" parent="1" source="s3q_Gl9xkGhvtME_iPTI-170" target="s3q_Gl9xkGhvtME_iPTI-164">
          <mxGeometry relative="1" as="geometry" />
        </mxCell>
        <mxCell id="s3q_Gl9xkGhvtME_iPTI-170" value="Apoderado" style="rounded=0;whiteSpace=wrap;html=1;" vertex="1" parent="1">
          <mxGeometry x="2750" y="420" width="120" height="40" as="geometry" />
        </mxCell>
        <mxCell id="s3q_Gl9xkGhvtME_iPTI-174" style="edgeStyle=orthogonalEdgeStyle;rounded=0;orthogonalLoop=1;jettySize=auto;html=1;exitX=0.5;exitY=0;exitDx=0;exitDy=0;entryX=0.5;entryY=1;entryDx=0;entryDy=0;" edge="1" parent="1" source="s3q_Gl9xkGhvtME_iPTI-171" target="s3q_Gl9xkGhvtME_iPTI-165">
          <mxGeometry relative="1" as="geometry" />
        </mxCell>
        <mxCell id="s3q_Gl9xkGhvtME_iPTI-171" value="Apoderado" style="rounded=0;whiteSpace=wrap;html=1;" vertex="1" parent="1">
          <mxGeometry x="2890" y="420" width="120" height="40" as="geometry" />
        </mxCell>
        <mxCell id="s3q_Gl9xkGhvtME_iPTI-179" style="edgeStyle=orthogonalEdgeStyle;rounded=0;orthogonalLoop=1;jettySize=auto;html=1;exitX=0.5;exitY=1;exitDx=0;exitDy=0;entryX=0.5;entryY=0;entryDx=0;entryDy=0;" edge="1" parent="1" source="s3q_Gl9xkGhvtME_iPTI-175" target="s3q_Gl9xkGhvtME_iPTI-176">
          <mxGeometry relative="1" as="geometry" />
        </mxCell>
        <mxCell id="s3q_Gl9xkGhvtME_iPTI-180" style="edgeStyle=orthogonalEdgeStyle;rounded=0;orthogonalLoop=1;jettySize=auto;html=1;exitX=0.5;exitY=1;exitDx=0;exitDy=0;entryX=0.5;entryY=0;entryDx=0;entryDy=0;" edge="1" parent="1" source="s3q_Gl9xkGhvtME_iPTI-175" target="s3q_Gl9xkGhvtME_iPTI-178">
          <mxGeometry relative="1" as="geometry" />
        </mxCell>
        <mxCell id="s3q_Gl9xkGhvtME_iPTI-175" value="Apoderado" style="rounded=0;whiteSpace=wrap;html=1;" vertex="1" parent="1">
          <mxGeometry x="3170" y="120" width="120" height="40" as="geometry" />
        </mxCell>
        <mxCell id="s3q_Gl9xkGhvtME_iPTI-176" value="Alumno" style="rounded=0;whiteSpace=wrap;html=1;" vertex="1" parent="1">
          <mxGeometry x="3090" y="220" width="120" height="40" as="geometry" />
        </mxCell>
        <mxCell id="s3q_Gl9xkGhvtME_iPTI-178" value="Alumno" style="rounded=0;whiteSpace=wrap;html=1;" vertex="1" parent="1">
          <mxGeometry x="3240" y="220" width="120" height="40" as="geometry" />
        </mxCell>
        <mxCell id="s3q_Gl9xkGhvtME_iPTI-181" value="Alumno" style="rounded=0;whiteSpace=wrap;html=1;" vertex="1" parent="1">
          <mxGeometry x="3160" y="400" width="120" height="40" as="geometry" />
        </mxCell>
        <mxCell id="s3q_Gl9xkGhvtME_iPTI-184" style="edgeStyle=orthogonalEdgeStyle;rounded=0;orthogonalLoop=1;jettySize=auto;html=1;exitX=0.5;exitY=1;exitDx=0;exitDy=0;entryX=0.5;entryY=0;entryDx=0;entryDy=0;" edge="1" parent="1" source="s3q_Gl9xkGhvtME_iPTI-182" target="s3q_Gl9xkGhvtME_iPTI-181">
          <mxGeometry relative="1" as="geometry" />
        </mxCell>
        <mxCell id="s3q_Gl9xkGhvtME_iPTI-182" value="Apoderado" style="rounded=0;whiteSpace=wrap;html=1;" vertex="1" parent="1">
          <mxGeometry x="3090" y="310" width="120" height="40" as="geometry" />
        </mxCell>
        <mxCell id="s3q_Gl9xkGhvtME_iPTI-185" style="edgeStyle=orthogonalEdgeStyle;rounded=0;orthogonalLoop=1;jettySize=auto;html=1;exitX=0.5;exitY=1;exitDx=0;exitDy=0;" edge="1" parent="1" source="s3q_Gl9xkGhvtME_iPTI-183" target="s3q_Gl9xkGhvtME_iPTI-181">
          <mxGeometry relative="1" as="geometry" />
        </mxCell>
        <mxCell id="s3q_Gl9xkGhvtME_iPTI-183" value="Apoderado" style="rounded=0;whiteSpace=wrap;html=1;" vertex="1" parent="1">
          <mxGeometry x="3240" y="310" width="120" height="40" as="geometry" />
        </mxCell>
        <mxCell id="s3q_Gl9xkGhvtME_iPTI-186" value="Alumno" style="rounded=0;whiteSpace=wrap;html=1;" vertex="1" parent="1">
          <mxGeometry x="3400" y="290" width="120" height="40" as="geometry" />
        </mxCell>
        <mxCell id="s3q_Gl9xkGhvtME_iPTI-187" value="Alumno" style="rounded=0;whiteSpace=wrap;html=1;" vertex="1" parent="1">
          <mxGeometry x="3540" y="290" width="120" height="40" as="geometry" />
        </mxCell>
        <mxCell id="s3q_Gl9xkGhvtME_iPTI-188" value="Apoderado" style="rounded=0;whiteSpace=wrap;html=1;" vertex="1" parent="1">
          <mxGeometry x="3400" y="150" width="120" height="40" as="geometry" />
        </mxCell>
        <mxCell id="s3q_Gl9xkGhvtME_iPTI-189" value="Apoderado" style="rounded=0;whiteSpace=wrap;html=1;" vertex="1" parent="1">
          <mxGeometry x="3540" y="150" width="120" height="40" as="geometry" />
        </mxCell>
        <mxCell id="s3q_Gl9xkGhvtME_iPTI-191" style="edgeStyle=orthogonalEdgeStyle;rounded=0;orthogonalLoop=1;jettySize=auto;html=1;exitX=0.5;exitY=1;exitDx=0;exitDy=0;entryX=0.5;entryY=0;entryDx=0;entryDy=0;" edge="1" parent="1" source="s3q_Gl9xkGhvtME_iPTI-190" target="s3q_Gl9xkGhvtME_iPTI-186">
          <mxGeometry relative="1" as="geometry" />
        </mxCell>
        <mxCell id="s3q_Gl9xkGhvtME_iPTI-192" style="edgeStyle=orthogonalEdgeStyle;rounded=0;orthogonalLoop=1;jettySize=auto;html=1;exitX=0.5;exitY=1;exitDx=0;exitDy=0;entryX=0.5;entryY=0;entryDx=0;entryDy=0;" edge="1" parent="1" source="s3q_Gl9xkGhvtME_iPTI-190" target="s3q_Gl9xkGhvtME_iPTI-187">
          <mxGeometry relative="1" as="geometry" />
        </mxCell>
        <mxCell id="s3q_Gl9xkGhvtME_iPTI-193" style="edgeStyle=orthogonalEdgeStyle;rounded=0;orthogonalLoop=1;jettySize=auto;html=1;exitX=0.5;exitY=0;exitDx=0;exitDy=0;entryX=0.5;entryY=1;entryDx=0;entryDy=0;" edge="1" parent="1" source="s3q_Gl9xkGhvtME_iPTI-190" target="s3q_Gl9xkGhvtME_iPTI-188">
          <mxGeometry relative="1" as="geometry" />
        </mxCell>
        <mxCell id="s3q_Gl9xkGhvtME_iPTI-194" style="edgeStyle=orthogonalEdgeStyle;rounded=0;orthogonalLoop=1;jettySize=auto;html=1;exitX=0.5;exitY=0;exitDx=0;exitDy=0;entryX=0.5;entryY=1;entryDx=0;entryDy=0;" edge="1" parent="1" source="s3q_Gl9xkGhvtME_iPTI-190" target="s3q_Gl9xkGhvtME_iPTI-189">
          <mxGeometry relative="1" as="geometry" />
        </mxCell>
        <mxCell id="s3q_Gl9xkGhvtME_iPTI-190" value="&lt;div&gt;&lt;br&gt;&lt;/div&gt;" style="rounded=0;whiteSpace=wrap;html=1;" vertex="1" parent="1">
          <mxGeometry x="3470" y="230" width="120" height="20" as="geometry" />
        </mxCell>
        <mxCell id="MDv_9sDQAER3Wda8S9pO-2" value="" style="ellipse;whiteSpace=wrap;html=1;fillColor=none;" vertex="1" parent="1">
          <mxGeometry x="2440" y="30" width="1420" height="550" as="geometry" />
        </mxCell>
        <mxCell id="MDv_9sDQAER3Wda8S9pO-3" value="INSTITUCIÓN EDUCATIVA" style="text;html=1;align=center;verticalAlign=middle;resizable=0;points=[];autosize=1;strokeColor=none;fillColor=none;fontSize=36;" vertex="1" parent="1">
          <mxGeometry x="2900" y="50" width="460" height="60" as="geometry" />
        </mxCell>
      </root>
    </mxGraphModel>
  </diagram>
</mxfile>
